<svg xmlns="http://www.w3.org/2000/svg" width="100" height="100" viewBox="0 0 100 100">
  <path d="M25,35 C25,25 35,20 50,20 C65,20 75,25 75,35 L75,65 C75,75 65,80 50,80 C35,80 25,75 25,65 L25,35 Z" fill="#e5a665" />
  <path d="M30,35 C30,30 35,25 50,25 C65,25 70,30 70,35 L70,40 C70,45 65,50 50,50 C35,50 30,45 30,40 L30,35 Z" fill="#f0c896" />
  <ellipse cx="40" cy="35" rx="3" ry="2" fill="#9e6c3d" />
  <ellipse cx="50" cy="35" rx="3" ry="2" fill="#9e6c3d" />
  <ellipse cx="60" cy="35" rx="3" ry="2" fill="#9e6c3d" />
</svg> 