<svg xmlns="http://www.w3.org/2000/svg" width="100" height="100" viewBox="0 0 100 100">
  <path d="M50,10 C55,10 60,20 60,25 C60,30 55,40 55,45 C55,50 60,60 50,70 C40,60 45,50 45,45 C45,40 40,30 40,25 C40,20 45,10 50,10 Z" fill="#8ab86c" />
  <path d="M50,70 C55,75 60,80 60,85 C60,90 55,95 50,95 C45,95 40,90 40,85 C40,80 45,75 50,70 Z" fill="#8ab86c" />
  <path d="M50,45 C55,45 60,50 60,55 C60,60 55,65 50,65 C45,65 40,60 40,55 C40,50 45,45 50,45 Z" fill="#afe078" />
  <path d="M50,25 C55,25 60,30 60,35 C60,40 55,45 50,45 C45,45 40,40 40,35 C40,30 45,25 50,25 Z" fill="#afe078" />
</svg> 